<?xml version="1.0" encoding="UTF-8"?><svg id="a" xmlns="http://www.w3.org/2000/svg" viewBox="0 0 32 32"><path d="M27.3,14.49h-1.73c-.62-1.68-2.23-2.89-4.13-2.89s-3.5,1.21-4.11,2.89H5.12c-.83,0-1.5,.67-1.5,1.5s.67,1.5,1.5,1.5h12.2c.6,1.69,2.22,2.91,4.12,2.91s3.53-1.22,4.14-2.91h1.72c.83,0,1.5-.67,1.5-1.5s-.67-1.5-1.5-1.5Zm-3.98,3c-.44,.55-1.12,.91-1.88,.91s-1.44-.36-1.87-.91c-.33-.41-.52-.93-.52-1.49s.2-1.09,.54-1.51c.43-.54,1.1-.89,1.85-.89s1.42,.35,1.86,.89c.34,.42,.54,.94,.54,1.51s-.19,1.08-.52,1.49Z"/><path d="M27.3,6.48H13.04c-.63-1.67-2.24-2.85-4.11-2.85s-3.5,1.2-4.11,2.88h-.01c-.68,.15-1.19,.75-1.19,1.47s.49,1.31,1.16,1.46c.58,1.73,2.22,2.98,4.15,2.98s3.55-1.23,4.15-2.94h14.22c.83,0,1.5-.67,1.5-1.5s-.67-1.5-1.5-1.5Zm-16.47,3c-.43,.57-1.13,.94-1.9,.94s-1.46-.37-1.89-.94c-.32-.4-.5-.9-.5-1.45,0-.6,.21-1.14,.57-1.55,.43-.52,1.09-.85,1.82-.85s1.39,.33,1.83,.85c.36,.41,.57,.95,.57,1.55,0,.55-.18,1.05-.5,1.45Z"/><path d="M27.3,22.5h-9.29c-.61-1.7-2.24-2.92-4.14-2.92s-3.53,1.22-4.13,2.92H5.12c-.83,0-1.5,.67-1.5,1.5s.67,1.5,1.5,1.5h4.64c.62,1.68,2.23,2.87,4.11,2.87s3.5-1.19,4.12-2.87h9.31c.83,0,1.5-.67,1.5-1.5s-.67-1.5-1.5-1.5Zm-11.59,3c-.44,.53-1.1,.87-1.84,.87s-1.4-.34-1.83-.87c-.35-.41-.56-.95-.56-1.53,0-.55,.19-1.07,.51-1.47,.43-.56,1.11-.92,1.88-.92s1.45,.36,1.89,.92c.32,.4,.51,.92,.51,1.47,0,.58-.21,1.12-.56,1.53Z"/></svg>